HIERARCHY
ROOT Hips
{
	OFFSET 0.000000 0.000000 0.000000 
	CHANNELS 6 Xposition Yposition Zposition Zrotation Yrotation Xrotation
	JOINT LeftUpLeg
	{
		OFFSET 1.363060 -1.794630 0.839290 
		CHANNELS 3 Zrotation Yrotation Xrotation
		JOINT LeftLeg
		{
			OFFSET 2.448110 -6.726130 0.000000 
			CHANNELS 3 Zrotation Yrotation Xrotation
			JOINT LeftFoot
			{
				OFFSET 2.562200 -7.039590 0.000000 
				CHANNELS 3 Zrotation Yrotation Xrotation
				JOINT LeftToeBase
				{
					OFFSET 0.157640 -0.433110 2.322550 
					CHANNELS 3 Zrotation Yrotation Xrotation
					End Site
					{
						OFFSET 0.000000 0.000000 0.000000 
					}
				}
			}
		}
	}
	JOINT RightUpLeg
	{
		OFFSET -1.305520 -1.794630 0.839290 
		CHANNELS 3 Zrotation Yrotation Xrotation
		JOINT RightLeg
		{
			OFFSET -2.542530 -6.985550 0.000000 
			CHANNELS 3 Zrotation Yrotation Xrotation
			JOINT RightFoot
			{
				OFFSET -2.568260 -7.056230 0.000000 
				CHANNELS 3 Zrotation Yrotation Xrotation
				JOINT RightToeBase
				{
					OFFSET -0.164730 -0.452590 2.363150 
					CHANNELS 3 Zrotation Yrotation Xrotation
					End Site
					{
						OFFSET 0.000000 0.000000 0.000000 
					}
				}
			}
		}
	}
	JOINT Spine
	{
		OFFSET 0.028270 2.035590 -0.193380 
		CHANNELS 3 Zrotation Yrotation Xrotation
		JOINT Spine1
		{
			OFFSET 0.056720 2.048850 -0.042750 
			CHANNELS 3 Zrotation Yrotation Xrotation
			JOINT Neck1
			{
				OFFSET -0.054170 1.746240 0.172020 
				CHANNELS 3 Zrotation Yrotation Xrotation
				JOINT Head
				{
					OFFSET 0.104070 1.761360 -0.123970 
					CHANNELS 3 Zrotation Yrotation Xrotation
					End Site
					{
						OFFSET 0.000000 0.000000 0.000000 
					}
				}
			}
			JOINT LeftArm
			{
				OFFSET 3.362410 1.200890 -0.311210 
				CHANNELS 3 Zrotation Yrotation Xrotation
				JOINT LeftForeArm
				{
					OFFSET 4.983000 -0.000000 -0.000000 
					CHANNELS 3 Zrotation Yrotation Xrotation
					JOINT LeftHand
					{
						OFFSET 3.483560 -0.000000 -0.000000 
						CHANNELS 3 Zrotation Yrotation Xrotation
						JOINT LeftHandIndex1
						{
							OFFSET 0.715260 -0.000000 -0.000000 
							CHANNELS 3 Zrotation Yrotation Xrotation
							End Site
							{
								OFFSET 0.000000 0.000000 0.000000 
							}
						}
					}
				}
			}
			JOINT RightArm
			{
				OFFSET -3.136600 1.374050 -0.404650 
				CHANNELS 3 Zrotation Yrotation Xrotation
				JOINT RightForeArm
				{
					OFFSET -5.241900 -0.000000 -0.000000 
					CHANNELS 3 Zrotation Yrotation Xrotation
					JOINT RightHand
					{
						OFFSET -3.444170 -0.000000 -0.000000 
						CHANNELS 3 Zrotation Yrotation Xrotation
						JOINT RightHandIndex1
						{
							OFFSET -0.622530 -0.000000 -0.000000 
							CHANNELS 3 Zrotation Yrotation Xrotation
							End Site
							{
								OFFSET 0.000000 0.000000 0.000000 
							}
						}
					}
				}
			}
		}
	}
}
MOTION
Frames: 10
Frame Time: 0.041667
1.026220 17.847357 -31.861990 -3.567797 0.977068 2.242703 -10.213514 -6.599032 -6.072419 0.350725 8.821248 22.620054 -4.442875 18.112535 -3.873800 0.201500 -2.890800 -7.974800 15.832607 -0.669738 -7.997627 -1.192283 -9.273022 24.116896 4.965863 -21.131114 -7.550363 -0.030600 1.129900 -3.106300 2.756702 0.686012 -1.719477 1.783453 0.285286 -2.965308 -0.225012 -1.422984 18.358248 -3.853600 -0.085300 11.754300 -92.968673 3.756557 24.118150 17.237279 -26.851794 -3.752633 0.250407 0.432870 -8.454367 -7.125000 0.000000 0.000000 87.389439 -2.009785 4.203752 -15.239734 24.727643 -3.296930 0.035611 -0.580399 -5.226492 7.125000 0.000000 0.000000 
1.034268 17.853120 -31.858115 -3.524899 1.172017 2.517330 -9.863607 -2.303014 -8.486299 0.430978 8.888721 23.038760 -3.147849 13.720814 -2.140401 0.230900 -3.093100 -8.537900 15.781138 -0.786472 -8.315629 -1.207145 -9.272212 24.168826 4.982197 -21.162807 -7.562993 -0.030200 1.121400 -3.083000 2.635643 0.587370 -1.891446 1.507895 0.244058 -3.087857 -0.097470 -1.418159 18.263717 -3.799800 -0.072100 11.694300 -92.809932 3.880769 23.989032 17.212969 -26.813356 -3.743058 0.254420 0.437691 -8.459379 -7.125000 0.000000 0.000000 87.576170 -2.107804 4.122018 -15.184709 24.662650 -3.276189 0.033457 -0.579095 -4.983155 7.125000 0.000000 0.000000 
1.042714 17.853120 -31.854935 -3.395558 1.475133 2.778926 -9.978605 -2.340530 -8.816188 0.429505 8.891256 23.076042 -3.043106 13.355222 -2.038525 0.244000 -3.178800 -8.777100 15.586203 -1.007262 -8.750494 -1.232978 -9.309429 24.307727 4.980350 -21.133033 -7.596572 -0.030900 1.133900 -3.117400 2.492872 0.445759 -2.054107 1.273891 0.174223 -3.193543 -0.044631 -1.400363 18.111364 -3.786700 -0.060800 11.621800 -92.654378 3.979490 23.876781 17.187510 -26.773922 -3.733024 0.259467 0.438127 -8.528239 -7.125000 0.000000 0.000000 87.740694 -2.175396 4.122902 -15.128744 24.596108 -3.256150 0.031184 -0.579162 -4.916717 7.125000 0.000000 0.000000 
1.039335 17.853616 -31.850265 -3.201773 1.372491 2.865728 -10.194895 -2.517110 -8.823417 0.439062 8.921942 23.156162 -3.124522 13.635585 -2.175348 0.238600 -3.143500 -8.678600 15.353886 -0.987294 -8.876020 -1.249627 -9.337925 24.408407 4.953789 -21.024664 -7.588101 -0.030300 1.123400 -3.088400 2.374280 0.499908 -2.172974 1.212982 0.204753 -3.352782 -0.049733 -1.426848 18.188162 -3.803800 -0.060900 11.645900 -92.505458 4.128082 23.799605 17.152701 -26.716324 -3.715097 0.257161 0.431619 -8.534324 -7.125000 0.000000 0.000000 87.892766 -2.365099 4.092029 -15.103474 24.567391 -3.247883 0.030155 -0.580392 -4.785847 7.125000 0.000000 0.000000 
1.040130 17.854411 -31.845396 -3.127329 1.390179 3.011664 -10.242421 -2.132925 -9.147074 0.443106 8.922820 23.184513 -2.999347 13.207515 -2.021507 0.242600 -3.169700 -8.751500 15.254894 -0.984997 -9.079899 -1.268537 -9.369226 24.521479 4.947276 -20.989320 -7.621800 -0.030100 1.120800 -3.081300 2.269258 0.496710 -2.305123 1.052879 0.203649 -3.489526 -0.003656 -1.439249 18.187029 -3.794200 -0.055600 11.634300 -92.352118 4.266611 23.700374 17.122064 -26.667061 -3.701097 0.258021 0.431541 -8.537821 -7.125000 0.000000 0.000000 88.052214 -2.513388 4.063353 -15.058577 24.513904 -3.231894 0.027847 -0.580399 -4.668857 7.125000 0.000000 0.000000 
1.039435 17.854809 -31.839733 -3.100386 1.358362 3.125691 -10.260212 -2.068178 -9.275514 0.443206 8.921251 23.187348 -2.982536 13.146975 -2.003774 0.244500 -3.181800 -8.785400 15.214825 -0.931340 -9.210494 -1.279043 -9.387510 24.587132 4.946362 -20.978581 -7.642259 -0.030000 1.118900 -3.076100 2.180738 0.521451 -2.424224 0.895776 0.214414 -3.620430 0.041850 -1.457204 18.214311 -3.785300 -0.051300 11.635600 -92.199826 4.413644 23.609499 17.096960 -26.625471 -3.689505 0.258338 0.433067 -8.542025 -7.125000 0.000000 0.000000 88.208292 -2.672856 4.037097 -15.014220 24.460838 -3.216311 0.025363 -0.580398 -4.566473 7.125000 0.000000 0.000000 
1.037845 17.855107 -31.833175 -3.115310 1.296461 3.214534 -10.235603 -2.009650 -9.384017 0.449614 8.931736 23.225378 -2.975249 13.115266 -2.027688 0.245700 -3.189600 -8.807100 15.228318 -0.841787 -9.289143 -1.285495 -9.399505 24.630592 4.950246 -20.988831 -7.662001 -0.029900 1.116800 -3.070300 2.106551 0.567046 -2.530713 0.737153 0.234275 -3.739847 0.090537 -1.480788 18.253876 -3.775100 -0.048500 11.641200 -92.048735 4.562687 23.526578 17.073610 -26.585934 -3.678521 0.258402 0.435046 -8.550437 -7.125000 0.000000 0.000000 88.362680 -2.837187 4.003125 -14.969451 24.407210 -3.200306 0.022947 -0.580170 -4.464667 7.125000 0.000000 0.000000 
1.036255 17.855405 -31.826120 -3.151825 1.235627 3.294730 -10.188852 -1.961182 -9.475402 0.455377 8.940154 23.256693 -2.970408 13.091626 -2.056572 0.246800 -3.196500 -8.826300 15.268577 -0.747308 -9.348870 -1.289583 -9.407693 24.660367 4.957082 -21.010954 -7.682421 -0.029800 1.113800 -3.061800 2.039289 0.617096 -2.628843 0.574424 0.255226 -3.847267 0.148027 -1.510807 18.310381 -3.760600 -0.047400 11.655500 -91.899219 4.707315 23.448439 17.050579 -26.547098 -3.667818 0.258693 0.437199 -8.571228 -7.125000 0.000000 0.000000 88.515745 -2.993682 3.963169 -14.921292 24.349015 -3.182806 0.020671 -0.579676 -4.365667 7.125000 0.000000 0.000000 
1.035460 17.856001 -31.817277 -3.167348 1.180749 3.398538 -10.167790 -1.933946 -9.571569 0.458843 8.945840 23.278693 -2.970012 13.083710 -2.092918 0.247600 -3.202000 -8.841600 15.278625 -0.674398 -9.432703 -1.293307 -9.413669 24.685380 4.960141 -21.017633 -7.690625 -0.029800 1.113600 -3.061400 1.955608 0.672901 -2.724517 0.392667 0.277587 -3.946376 0.231697 -1.571728 18.415720 -3.737400 -0.056600 11.708000 -91.730879 4.825618 23.395649 17.024514 -26.503646 -3.655786 0.259651 0.438049 -8.597793 -7.125000 0.000000 0.000000 88.687716 -3.120789 3.898410 -14.871551 24.289794 -3.164737 0.018755 -0.579009 -4.265300 7.125000 0.000000 0.000000 
1.034665 17.856399 -31.808632 -3.166772 1.137279 3.487794 -10.165000 -1.895650 -9.652298 0.460237 8.947823 23.288885 -2.965641 13.064239 -2.118693 0.248200 -3.205700 -8.852000 15.271183 -0.624351 -9.509475 -1.298218 -9.421705 24.716226 4.961152 -21.017203 -7.698430 -0.029900 1.115300 -3.066200 1.871093 0.723661 -2.813661 0.221078 0.297669 -4.041639 0.308102 -1.629011 18.509603 -3.716800 -0.065400 11.753500 -91.567739 4.943356 23.338903 16.995347 -26.455966 -3.642492 0.260645 0.437738 -8.618997 -7.125000 0.000000 0.000000 88.855754 -3.246001 3.841150 -14.822295 24.230920 -3.146574 0.017338 -0.578263 -4.169340 7.125000 0.000000 0.000000 
